<?xml version="1.0" standalone="no"?>
<!DOCTYPE svg PUBLIC "-//W3C//DTD SVG 20010904//EN"
 "http://www.w3.org/TR/2001/REC-SVG-20010904/DTD/svg10.dtd">
<svg version="1.0" xmlns="http://www.w3.org/2000/svg"
 width="96.000000pt" height="96.000000pt" viewBox="0 0 96.000000 96.000000"
 preserveAspectRatio="xMidYMid meet">
<metadata>
Created by potrace 1.14, written by Peter Selinger 2001-2017
</metadata>
<g transform="translate(0.000000,96.000000) scale(0.100000,-0.100000)"
fill="#000000" stroke="none">
<path d="M441 913 c4 -43 -1 -49 -58 -62 -120 -27 -231 -130 -267 -248 -6 -20
-4 -23 21 -23 24 0 31 6 41 34 28 76 109 150 196 180 62 20 63 20 69 -4 3 -14
14 -20 31 -20 19 0 26 5 26 20 0 24 6 25 66 4 84 -28 148 -85 190 -166 19 -38
29 -48 50 -48 22 0 24 3 18 23 -37 121 -165 234 -286 253 -38 6 -44 17 -39 62
1 7 -10 12 -29 12 -24 0 -31 -4 -29 -17z"/>
<path d="M385 681 c-22 -10 -56 -35 -75 -57 l-34 -39 27 -3 c18 -2 39 7 65 28
64 51 157 46 218 -11 14 -13 32 -19 50 -17 l28 3 -34 39 c-43 48 -101 76 -160
76 -25 0 -63 -9 -85 -19z"/>
<path d="M0 479 c0 -61 5 -68 52 -61 27 4 28 6 28 61 l0 56 -40 1 -40 1 0 -58z
m50 -4 c0 -14 -4 -25 -8 -25 -4 0 -8 11 -8 25 0 14 4 25 8 25 4 0 8 -11 8 -25z"/>
<path d="M113 532 c-7 -4 -11 -28 -9 -57 l2 -50 42 -3 42 -3 0 54 c0 29 -3 56
-6 60 -15 15 -31 -8 -32 -45 -3 -60 -12 -60 -12 0 0 52 -4 59 -27 44z"/>
<path d="M210 481 c0 -57 1 -59 30 -63 16 -3 35 -1 41 3 12 7 17 95 6 105 -3
3 -22 8 -41 10 l-36 3 0 -58z"/>
<path d="M324 532 c-5 -4 -10 -31 -10 -59 0 -43 3 -53 17 -53 10 0 20 8 22 18
4 16 5 16 6 0 0 -10 9 -18 19 -18 14 0 17 10 18 55 1 30 -1 56 -5 56 -33 6
-59 6 -67 1z"/>
<path d="M425 532 c-3 -3 -5 -29 -5 -58 0 -46 3 -52 23 -56 49 -9 57 0 57 60
l0 57 -35 1 c-19 1 -37 -1 -40 -4z m45 -57 c0 -14 -4 -25 -9 -25 -6 0 -8 36
-2 48 5 10 11 -2 11 -23z"/>
<path d="M525 488 c9 -65 11 -68 40 -68 24 0 29 10 37 90 5 44 -26 30 -33 -15
-5 -30 -7 -33 -8 -12 0 15 -1 30 0 33 1 8 -22 24 -34 24 -5 0 -6 -24 -2 -52z"/>
<path d="M626 533 c-12 -13 -5 -43 14 -61 l21 -19 -21 -6 c-35 -9 -23 -28 17
-25 29 2 37 8 39 25 3 15 -3 27 -16 35 -23 14 -27 30 -6 22 7 -3 16 2 19 10 4
9 3 16 -1 17 -4 0 -19 2 -34 4 -14 2 -29 1 -32 -2z"/>
<path d="M719 538 c-1 -2 -2 -29 -3 -60 -1 -49 1 -58 16 -58 9 0 18 10 21 23
l4 22 2 -22 c1 -15 7 -23 20 -23 16 0 18 7 15 56 -2 31 -5 59 -8 61 -8 9 -26
-8 -27 -25 0 -12 -3 -11 -9 6 -8 18 -26 30 -31 20z"/>
<path d="M820 478 c0 -49 3 -58 18 -58 14 0 17 8 16 48 -2 67 -2 69 -19 69
-12 0 -15 -13 -15 -59z"/>
<path d="M875 526 c12 -56 31 -106 40 -106 9 0 45 90 45 112 0 15 -34 -1 -40
-17 -6 -18 -7 -18 -12 1 -5 21 -38 30 -33 10z"/>
<path d="M120 365 c0 -8 6 -15 13 -15 8 0 7 -4 -3 -10 -13 -8 -12 -10 3 -10
19 0 23 15 7 25 -6 4 -8 11 -5 16 4 5 1 9 -4 9 -6 0 -11 -7 -11 -15z"/>
<path d="M210 361 c11 -22 13 -23 22 -7 5 10 7 20 4 23 -3 4 -6 1 -6 -7 0 -10
-3 -10 -17 1 -15 13 -15 12 -3 -10z"/>
<path d="M316 363 c-4 -9 -2 -21 4 -27 7 -7 10 -2 10 17 0 31 -5 34 -14 10z"/>
<path d="M387 360 c-6 -23 10 -37 25 -22 12 12 4 42 -11 42 -5 0 -11 -9 -14
-20z m23 -5 c0 -8 -4 -15 -10 -15 -5 0 -7 7 -4 15 4 8 8 15 10 15 2 0 4 -7 4
-15z"/>
<path d="M547 373 c-14 -14 -7 -43 11 -42 10 0 12 3 5 6 -7 2 -13 12 -13 20 0
10 6 13 16 9 8 -3 12 -2 9 4 -7 12 -19 13 -28 3z"/>
<path d="M641 362 c-14 -27 -14 -28 9 -28 21 0 25 12 11 35 -7 11 -11 10 -20
-7z"/>
<path d="M734 360 c0 -11 4 -20 8 -20 4 0 8 9 8 20 0 11 -4 20 -8 20 -4 0 -8
-9 -8 -20z"/>
<path d="M810 355 c0 -17 5 -25 18 -25 14 0 15 2 2 10 -13 9 -13 10 0 10 12 0
13 2 1 9 -11 7 -11 9 0 14 10 4 9 6 -3 6 -13 1 -18 -7 -18 -24z"/>
<path d="M290 350 c0 -11 2 -20 4 -20 2 0 6 9 9 20 3 11 1 20 -4 20 -5 0 -9
-9 -9 -20z"/>
<path d="M155 289 c-8 -12 26 -59 72 -99 42 -38 120 -75 176 -85 36 -7 43 -19
38 -62 -1 -8 10 -13 29 -13 24 0 31 4 29 18 -4 42 1 50 39 57 89 16 204 91
238 156 18 36 18 35 -11 34 -15 -1 -43 -20 -72 -48 -48 -48 -103 -79 -160 -92
-29 -6 -33 -4 -33 13 0 11 -8 22 -19 25 -21 5 -41 -9 -41 -30 0 -35 -134 24
-196 86 -40 41 -78 58 -89 40z"/>
<path d="M370 288 c0 -9 68 -28 100 -28 31 0 98 18 104 28 2 4 -43 7 -100 7
-57 0 -104 -3 -104 -7z"/>
</g>
</svg>
